<svg xmlns="http://www.w3.org/2000/svg" xmlns:xlink="http://www.w3.org/1999/xlink" width="4000" zoomAndPan="magnify" viewBox="0 0 3000 2999.999989" height="4000" preserveAspectRatio="xMidYMid meet" version="1.0"><defs><g/><clipPath id="a1ba85fab5"><path d="M 105 105 L 2895 105 L 2895 2895 L 105 2895 Z M 105 105 " clip-rule="nonzero"/></clipPath><clipPath id="51ca13da5b"><path d="M 231.359375 0 L 2999.710938 231.335938 L 2768.375 2999.6875 L 0.0234375 2768.351562 Z M 231.359375 0 " clip-rule="nonzero"/></clipPath><clipPath id="bf18acc4eb"><path d="M 231.359375 0 L 2999.710938 231.335938 L 2768.375 2999.6875 L 0.0234375 2768.351562 Z M 231.359375 0 " clip-rule="nonzero"/></clipPath><clipPath id="85bf135048"><rect x="0" width="1020" y="0" height="1918"/></clipPath></defs><g clip-path="url(#a1ba85fab5)"><g clip-path="url(#51ca13da5b)"><g clip-path="url(#bf18acc4eb)"><path fill="#a49676" d="M 1506.96875 2894.410156 C 1505.464844 2894.28125 1504.011719 2893.9375 1502.609375 2893.378906 L 524.78125 2495.066406 C 522.964844 2494.308594 521.363281 2493.226562 519.976562 2491.828125 C 518.589844 2490.425781 517.527344 2488.8125 516.785156 2486.988281 L 107.066406 1513.988281 C 106.304688 1512.1875 105.917969 1510.3125 105.902344 1508.359375 C 105.886719 1506.40625 106.242188 1504.523438 106.972656 1502.710938 L 505.371094 524.746094 C 506.121094 522.914062 507.199219 521.296875 508.601562 519.898438 C 510.003906 518.496094 511.621094 517.421875 513.457031 516.675781 L 1486.371094 107.097656 C 1488.183594 106.339844 1490.074219 105.960938 1492.039062 105.957031 C 1494.003906 105.957031 1495.898438 106.332031 1497.710938 107.082031 L 2475.464844 505.386719 C 2477.296875 506.140625 2478.914062 507.21875 2480.3125 508.621094 C 2481.710938 510.023438 2482.785156 511.640625 2483.535156 513.476562 L 2893.246094 1486.546875 C 2894.007812 1488.347656 2894.398438 1490.222656 2894.414062 1492.175781 C 2894.429688 1494.128906 2894.074219 1496.011719 2893.34375 1497.824219 L 2494.957031 2475.640625 C 2494.203125 2477.476562 2493.128906 2479.089844 2491.726562 2480.492188 C 2490.324219 2481.890625 2488.703125 2482.964844 2486.871094 2483.714844 L 1513.953125 2893.363281 C 1511.710938 2894.285156 1509.382812 2894.636719 1506.96875 2894.410156 Z M 541.632812 2469.9375 L 1508.128906 2863.671875 L 2469.90625 2458.722656 L 2863.632812 1492.300781 L 2458.691406 530.449219 L 1492.195312 136.71875 L 530.421875 541.664062 L 136.6875 1508.160156 Z M 2481.277344 2469.902344 Z M 2481.277344 2469.902344 " fill-opacity="1" fill-rule="nonzero"/><path fill="#a49676" d="M 1506.96875 2894.410156 C 1505.25 2894.269531 1503.605469 2893.84375 1502.035156 2893.125 C 1500.464844 2892.410156 1499.0625 2891.445312 1497.832031 2890.238281 L 110.371094 1518.785156 C 109.683594 1518.105469 109.0625 1517.359375 108.519531 1516.554688 C 107.976562 1515.75 107.515625 1514.902344 107.140625 1514.007812 C 106.761719 1513.109375 106.476562 1512.1875 106.28125 1511.234375 C 106.085938 1510.285156 105.988281 1509.324219 105.984375 1508.351562 C 105.976562 1507.378906 106.066406 1506.417969 106.253906 1505.464844 C 106.4375 1504.511719 106.714844 1503.585938 107.082031 1502.6875 C 107.449219 1501.785156 107.902344 1500.933594 108.4375 1500.121094 C 108.972656 1499.3125 109.582031 1498.5625 110.265625 1497.875 L 1481.578125 110.328125 C 1482.261719 109.640625 1483.003906 109.019531 1483.808594 108.476562 C 1484.613281 107.933594 1485.460938 107.472656 1486.359375 107.097656 C 1487.253906 106.71875 1488.175781 106.433594 1489.128906 106.238281 C 1490.078125 106.042969 1491.042969 105.945312 1492.011719 105.941406 C 1492.984375 105.933594 1493.945312 106.023438 1494.898438 106.210938 C 1495.851562 106.394531 1496.777344 106.671875 1497.679688 107.039062 C 1498.578125 107.40625 1499.433594 107.859375 1500.242188 108.394531 C 1501.050781 108.929688 1501.800781 109.539062 1502.492188 110.222656 L 2890.023438 1481.683594 C 2890.710938 1482.363281 2891.332031 1483.109375 2891.875 1483.914062 C 2892.417969 1484.71875 2892.878906 1485.566406 2893.253906 1486.460938 C 2893.632812 1487.359375 2893.917969 1488.28125 2894.113281 1489.234375 C 2894.308594 1490.183594 2894.40625 1491.144531 2894.410156 1492.117188 C 2894.417969 1493.089844 2894.328125 1494.050781 2894.140625 1495.003906 C 2893.957031 1495.957031 2893.679688 1496.882812 2893.3125 1497.78125 C 2892.945312 1498.679688 2892.492188 1499.535156 2891.957031 1500.347656 C 2891.421875 1501.15625 2890.8125 1501.90625 2890.128906 1502.59375 L 1518.667969 2890.125 C 1517.910156 2890.886719 1517.074219 2891.558594 1516.167969 2892.136719 C 1515.261719 2892.71875 1514.304688 2893.191406 1513.292969 2893.5625 C 1512.28125 2893.933594 1511.246094 2894.191406 1510.179688 2894.332031 C 1509.113281 2894.476562 1508.042969 2894.503906 1506.96875 2894.410156 Z M 141.582031 1508.125 L 1508.089844 2858.851562 L 2858.738281 1492.335938 L 1492.234375 141.613281 Z M 141.582031 1508.125 " fill-opacity="1" fill-rule="nonzero"/></g></g></g><g transform="matrix(1, 0, 0, 1, 1022, 576)"><g clip-path="url(#85bf135048)"><g fill="#a49676" fill-opacity="0.302"><g transform="translate(25.455349, 947.760615)"><g><path d="M 626.671875 -549.53125 C 626.671875 -515.875 621.273438 -485.710938 610.484375 -459.046875 C 599.691406 -432.378906 582.707031 -409.835938 559.53125 -391.421875 C 536.351562 -373.015625 506.191406 -358.734375 469.046875 -348.578125 C 431.910156 -338.421875 386.675781 -333.34375 333.34375 -333.34375 L 247.625 -333.34375 L 247.625 -149.53125 C 247.625 -126.03125 249.050781 -106.820312 251.90625 -91.90625 C 254.757812 -76.988281 260.789062 -65.398438 270 -57.140625 C 279.207031 -48.890625 292.539062 -43.332031 310 -40.46875 C 327.457031 -37.613281 350.472656 -36.1875 379.046875 -36.1875 L 379.046875 0 L 42.859375 0 L 42.859375 -36.1875 C 65.078125 -36.820312 83.007812 -38.726562 96.65625 -41.90625 C 110.3125 -45.082031 120.945312 -50.476562 128.5625 -58.09375 C 136.1875 -65.71875 141.269531 -76.515625 143.8125 -90.484375 C 146.351562 -104.453125 147.625 -122.546875 147.625 -144.765625 L 147.625 -588.578125 C 147.625 -610.796875 146.507812 -628.726562 144.28125 -642.375 C 142.0625 -656.03125 137.617188 -666.828125 130.953125 -674.765625 C 124.285156 -682.703125 114.601562 -688.097656 101.90625 -690.953125 C 89.207031 -693.816406 72.695312 -695.882812 52.375 -697.15625 L 52.375 -733.34375 L 351.4375 -733.34375 C 439.050781 -733.34375 506.828125 -717.148438 554.765625 -684.765625 C 602.703125 -652.390625 626.671875 -607.3125 626.671875 -549.53125 Z M 247.625 -380.953125 L 315.234375 -380.953125 C 378.734375 -380.953125 425.878906 -393.175781 456.671875 -417.625 C 487.460938 -442.070312 502.859375 -482.226562 502.859375 -538.09375 C 502.859375 -592.0625 490.632812 -630.632812 466.1875 -653.8125 C 441.75 -676.988281 403.5 -688.578125 351.4375 -688.578125 L 263.8125 -688.578125 C 253.019531 -688.578125 247.625 -683.179688 247.625 -672.390625 Z M 247.625 -380.953125 "/></g></g></g><g fill="#a49676" fill-opacity="0.502"><g transform="translate(17.036834, 939.342098)"><g><path d="M 626.671875 -549.53125 C 626.671875 -515.875 621.273438 -485.710938 610.484375 -459.046875 C 599.691406 -432.378906 582.707031 -409.835938 559.53125 -391.421875 C 536.351562 -373.015625 506.191406 -358.734375 469.046875 -348.578125 C 431.910156 -338.421875 386.675781 -333.34375 333.34375 -333.34375 L 247.625 -333.34375 L 247.625 -149.53125 C 247.625 -126.03125 249.050781 -106.820312 251.90625 -91.90625 C 254.757812 -76.988281 260.789062 -65.398438 270 -57.140625 C 279.207031 -48.890625 292.539062 -43.332031 310 -40.46875 C 327.457031 -37.613281 350.472656 -36.1875 379.046875 -36.1875 L 379.046875 0 L 42.859375 0 L 42.859375 -36.1875 C 65.078125 -36.820312 83.007812 -38.726562 96.65625 -41.90625 C 110.3125 -45.082031 120.945312 -50.476562 128.5625 -58.09375 C 136.1875 -65.71875 141.269531 -76.515625 143.8125 -90.484375 C 146.351562 -104.453125 147.625 -122.546875 147.625 -144.765625 L 147.625 -588.578125 C 147.625 -610.796875 146.507812 -628.726562 144.28125 -642.375 C 142.0625 -656.03125 137.617188 -666.828125 130.953125 -674.765625 C 124.285156 -682.703125 114.601562 -688.097656 101.90625 -690.953125 C 89.207031 -693.816406 72.695312 -695.882812 52.375 -697.15625 L 52.375 -733.34375 L 351.4375 -733.34375 C 439.050781 -733.34375 506.828125 -717.148438 554.765625 -684.765625 C 602.703125 -652.390625 626.671875 -607.3125 626.671875 -549.53125 Z M 247.625 -380.953125 L 315.234375 -380.953125 C 378.734375 -380.953125 425.878906 -393.175781 456.671875 -417.625 C 487.460938 -442.070312 502.859375 -482.226562 502.859375 -538.09375 C 502.859375 -592.0625 490.632812 -630.632812 466.1875 -653.8125 C 441.75 -676.988281 403.5 -688.578125 351.4375 -688.578125 L 263.8125 -688.578125 C 253.019531 -688.578125 247.625 -683.179688 247.625 -672.390625 Z M 247.625 -380.953125 "/></g></g></g><g fill="#a49676" fill-opacity="1"><g transform="translate(8.618318, 930.923585)"><g><path d="M 626.671875 -549.53125 C 626.671875 -515.875 621.273438 -485.710938 610.484375 -459.046875 C 599.691406 -432.378906 582.707031 -409.835938 559.53125 -391.421875 C 536.351562 -373.015625 506.191406 -358.734375 469.046875 -348.578125 C 431.910156 -338.421875 386.675781 -333.34375 333.34375 -333.34375 L 247.625 -333.34375 L 247.625 -149.53125 C 247.625 -126.03125 249.050781 -106.820312 251.90625 -91.90625 C 254.757812 -76.988281 260.789062 -65.398438 270 -57.140625 C 279.207031 -48.890625 292.539062 -43.332031 310 -40.46875 C 327.457031 -37.613281 350.472656 -36.1875 379.046875 -36.1875 L 379.046875 0 L 42.859375 0 L 42.859375 -36.1875 C 65.078125 -36.820312 83.007812 -38.726562 96.65625 -41.90625 C 110.3125 -45.082031 120.945312 -50.476562 128.5625 -58.09375 C 136.1875 -65.71875 141.269531 -76.515625 143.8125 -90.484375 C 146.351562 -104.453125 147.625 -122.546875 147.625 -144.765625 L 147.625 -588.578125 C 147.625 -610.796875 146.507812 -628.726562 144.28125 -642.375 C 142.0625 -656.03125 137.617188 -666.828125 130.953125 -674.765625 C 124.285156 -682.703125 114.601562 -688.097656 101.90625 -690.953125 C 89.207031 -693.816406 72.695312 -695.882812 52.375 -697.15625 L 52.375 -733.34375 L 351.4375 -733.34375 C 439.050781 -733.34375 506.828125 -717.148438 554.765625 -684.765625 C 602.703125 -652.390625 626.671875 -607.3125 626.671875 -549.53125 Z M 247.625 -380.953125 L 315.234375 -380.953125 C 378.734375 -380.953125 425.878906 -393.175781 456.671875 -417.625 C 487.460938 -442.070312 502.859375 -482.226562 502.859375 -538.09375 C 502.859375 -592.0625 490.632812 -630.632812 466.1875 -653.8125 C 441.75 -676.988281 403.5 -688.578125 351.4375 -688.578125 L 263.8125 -688.578125 C 253.019531 -688.578125 247.625 -683.179688 247.625 -672.390625 Z M 247.625 -380.953125 "/></g></g></g><g fill="#a49676" fill-opacity="0.302"><g transform="translate(17.518357, 1670.562478)"><g><path d="M 658.109375 0 L 42.859375 0 L 42.859375 -36.1875 C 65.078125 -36.820312 83.007812 -38.726562 96.65625 -41.90625 C 110.3125 -45.082031 120.945312 -50.476562 128.5625 -58.09375 C 136.1875 -65.71875 141.269531 -76.515625 143.8125 -90.484375 C 146.351562 -104.453125 147.625 -122.546875 147.625 -144.765625 L 147.625 -588.578125 C 147.625 -610.796875 146.507812 -628.726562 144.28125 -642.375 C 142.0625 -656.03125 137.617188 -666.828125 130.953125 -674.765625 C 124.285156 -682.703125 114.601562 -688.097656 101.90625 -690.953125 C 89.207031 -693.816406 72.695312 -695.882812 52.375 -697.15625 L 52.375 -733.34375 L 341.90625 -733.34375 L 341.90625 -697.15625 C 321.59375 -696.519531 305.242188 -694.613281 292.859375 -691.4375 C 280.472656 -688.257812 270.945312 -682.539062 264.28125 -674.28125 C 257.613281 -666.03125 253.171875 -654.601562 250.953125 -640 C 248.734375 -625.394531 247.625 -606.03125 247.625 -581.90625 L 247.625 -171.4375 C 247.625 -144.769531 250.320312 -123.019531 255.71875 -106.1875 C 261.113281 -89.363281 270.316406 -76.347656 283.328125 -67.140625 C 296.347656 -57.929688 313.648438 -51.582031 335.234375 -48.09375 C 356.828125 -44.601562 384.128906 -42.859375 417.140625 -42.859375 C 453.335938 -42.859375 483.816406 -44.921875 508.578125 -49.046875 C 533.335938 -53.171875 554.128906 -60.472656 570.953125 -70.953125 C 587.785156 -81.429688 601.117188 -96.035156 610.953125 -114.765625 C 620.796875 -133.492188 629.210938 -157.78125 636.203125 -187.625 L 672.390625 -187.625 Z M 658.109375 0 "/></g></g></g><g fill="#a49676" fill-opacity="0.502"><g transform="translate(9.099842, 1662.14395)"><g><path d="M 658.109375 0 L 42.859375 0 L 42.859375 -36.1875 C 65.078125 -36.820312 83.007812 -38.726562 96.65625 -41.90625 C 110.3125 -45.082031 120.945312 -50.476562 128.5625 -58.09375 C 136.1875 -65.71875 141.269531 -76.515625 143.8125 -90.484375 C 146.351562 -104.453125 147.625 -122.546875 147.625 -144.765625 L 147.625 -588.578125 C 147.625 -610.796875 146.507812 -628.726562 144.28125 -642.375 C 142.0625 -656.03125 137.617188 -666.828125 130.953125 -674.765625 C 124.285156 -682.703125 114.601562 -688.097656 101.90625 -690.953125 C 89.207031 -693.816406 72.695312 -695.882812 52.375 -697.15625 L 52.375 -733.34375 L 341.90625 -733.34375 L 341.90625 -697.15625 C 321.59375 -696.519531 305.242188 -694.613281 292.859375 -691.4375 C 280.472656 -688.257812 270.945312 -682.539062 264.28125 -674.28125 C 257.613281 -666.03125 253.171875 -654.601562 250.953125 -640 C 248.734375 -625.394531 247.625 -606.03125 247.625 -581.90625 L 247.625 -171.4375 C 247.625 -144.769531 250.320312 -123.019531 255.71875 -106.1875 C 261.113281 -89.363281 270.316406 -76.347656 283.328125 -67.140625 C 296.347656 -57.929688 313.648438 -51.582031 335.234375 -48.09375 C 356.828125 -44.601562 384.128906 -42.859375 417.140625 -42.859375 C 453.335938 -42.859375 483.816406 -44.921875 508.578125 -49.046875 C 533.335938 -53.171875 554.128906 -60.472656 570.953125 -70.953125 C 587.785156 -81.429688 601.117188 -96.035156 610.953125 -114.765625 C 620.796875 -133.492188 629.210938 -157.78125 636.203125 -187.625 L 672.390625 -187.625 Z M 658.109375 0 "/></g></g></g><g fill="#a49676" fill-opacity="1"><g transform="translate(0.681326, 1653.725447)"><g><path d="M 658.109375 0 L 42.859375 0 L 42.859375 -36.1875 C 65.078125 -36.820312 83.007812 -38.726562 96.65625 -41.90625 C 110.3125 -45.082031 120.945312 -50.476562 128.5625 -58.09375 C 136.1875 -65.71875 141.269531 -76.515625 143.8125 -90.484375 C 146.351562 -104.453125 147.625 -122.546875 147.625 -144.765625 L 147.625 -588.578125 C 147.625 -610.796875 146.507812 -628.726562 144.28125 -642.375 C 142.0625 -656.03125 137.617188 -666.828125 130.953125 -674.765625 C 124.285156 -682.703125 114.601562 -688.097656 101.90625 -690.953125 C 89.207031 -693.816406 72.695312 -695.882812 52.375 -697.15625 L 52.375 -733.34375 L 341.90625 -733.34375 L 341.90625 -697.15625 C 321.59375 -696.519531 305.242188 -694.613281 292.859375 -691.4375 C 280.472656 -688.257812 270.945312 -682.539062 264.28125 -674.28125 C 257.613281 -666.03125 253.171875 -654.601562 250.953125 -640 C 248.734375 -625.394531 247.625 -606.03125 247.625 -581.90625 L 247.625 -171.4375 C 247.625 -144.769531 250.320312 -123.019531 255.71875 -106.1875 C 261.113281 -89.363281 270.316406 -76.347656 283.328125 -67.140625 C 296.347656 -57.929688 313.648438 -51.582031 335.234375 -48.09375 C 356.828125 -44.601562 384.128906 -42.859375 417.140625 -42.859375 C 453.335938 -42.859375 483.816406 -44.921875 508.578125 -49.046875 C 533.335938 -53.171875 554.128906 -60.472656 570.953125 -70.953125 C 587.785156 -81.429688 601.117188 -96.035156 610.953125 -114.765625 C 620.796875 -133.492188 629.210938 -157.78125 636.203125 -187.625 L 672.390625 -187.625 Z M 658.109375 0 "/></g></g></g><g fill="#a49676" fill-opacity="0.302"><g transform="translate(271.915182, 1449.882728)"><g><path d="M 656.203125 -733.34375 L 682.859375 -733.34375 L 691.4375 -514.296875 L 656.203125 -514.296875 C 642.234375 -570.160156 615.25 -613.96875 575.25 -645.71875 C 535.25 -677.46875 486.992188 -693.34375 430.484375 -693.34375 C 391.753906 -693.34375 357.148438 -685.722656 326.671875 -670.484375 C 296.191406 -655.242188 270.472656 -633.335938 249.515625 -604.765625 C 228.566406 -576.191406 212.535156 -541.269531 201.421875 -500 C 190.316406 -458.726562 184.765625 -412.0625 184.765625 -360 C 184.765625 -257.78125 206.035156 -179.207031 248.578125 -124.28125 C 291.117188 -69.363281 352.707031 -41.90625 433.34375 -41.90625 C 555.882812 -41.90625 634.613281 -106.984375 669.53125 -237.140625 L 708.578125 -237.140625 L 708.578125 0 L 675.25 0 L 653.34375 -75.234375 C 586.675781 -18.722656 506.039062 9.53125 411.4375 9.53125 C 357.46875 9.53125 308.734375 0.957031 265.234375 -16.1875 C 221.742188 -33.332031 184.601562 -57.617188 153.8125 -89.046875 C 123.019531 -120.472656 99.207031 -158.726562 82.375 -203.8125 C 65.550781 -248.894531 57.140625 -299.054688 57.140625 -354.296875 C 57.140625 -412.066406 66.03125 -464.757812 83.8125 -512.375 C 101.59375 -560 126.515625 -600.953125 158.578125 -635.234375 C 190.640625 -669.523438 229.050781 -696.035156 273.8125 -714.765625 C 318.570312 -733.492188 367.9375 -742.859375 421.90625 -742.859375 C 460 -742.859375 495.867188 -737.460938 529.515625 -726.671875 C 563.171875 -715.878906 599.679688 -698.421875 639.046875 -674.296875 Z M 656.203125 -733.34375 "/></g></g></g><g fill="#a49676" fill-opacity="0.502"><g transform="translate(263.496666, 1441.4642)"><g><path d="M 656.203125 -733.34375 L 682.859375 -733.34375 L 691.4375 -514.296875 L 656.203125 -514.296875 C 642.234375 -570.160156 615.25 -613.96875 575.25 -645.71875 C 535.25 -677.46875 486.992188 -693.34375 430.484375 -693.34375 C 391.753906 -693.34375 357.148438 -685.722656 326.671875 -670.484375 C 296.191406 -655.242188 270.472656 -633.335938 249.515625 -604.765625 C 228.566406 -576.191406 212.535156 -541.269531 201.421875 -500 C 190.316406 -458.726562 184.765625 -412.0625 184.765625 -360 C 184.765625 -257.78125 206.035156 -179.207031 248.578125 -124.28125 C 291.117188 -69.363281 352.707031 -41.90625 433.34375 -41.90625 C 555.882812 -41.90625 634.613281 -106.984375 669.53125 -237.140625 L 708.578125 -237.140625 L 708.578125 0 L 675.25 0 L 653.34375 -75.234375 C 586.675781 -18.722656 506.039062 9.53125 411.4375 9.53125 C 357.46875 9.53125 308.734375 0.957031 265.234375 -16.1875 C 221.742188 -33.332031 184.601562 -57.617188 153.8125 -89.046875 C 123.019531 -120.472656 99.207031 -158.726562 82.375 -203.8125 C 65.550781 -248.894531 57.140625 -299.054688 57.140625 -354.296875 C 57.140625 -412.066406 66.03125 -464.757812 83.8125 -512.375 C 101.59375 -560 126.515625 -600.953125 158.578125 -635.234375 C 190.640625 -669.523438 229.050781 -696.035156 273.8125 -714.765625 C 318.570312 -733.492188 367.9375 -742.859375 421.90625 -742.859375 C 460 -742.859375 495.867188 -737.460938 529.515625 -726.671875 C 563.171875 -715.878906 599.679688 -698.421875 639.046875 -674.296875 Z M 656.203125 -733.34375 "/></g></g></g><g fill="#a49676" fill-opacity="1"><g transform="translate(255.078151, 1433.045697)"><g><path d="M 656.203125 -733.34375 L 682.859375 -733.34375 L 691.4375 -514.296875 L 656.203125 -514.296875 C 642.234375 -570.160156 615.25 -613.96875 575.25 -645.71875 C 535.25 -677.46875 486.992188 -693.34375 430.484375 -693.34375 C 391.753906 -693.34375 357.148438 -685.722656 326.671875 -670.484375 C 296.191406 -655.242188 270.472656 -633.335938 249.515625 -604.765625 C 228.566406 -576.191406 212.535156 -541.269531 201.421875 -500 C 190.316406 -458.726562 184.765625 -412.0625 184.765625 -360 C 184.765625 -257.78125 206.035156 -179.207031 248.578125 -124.28125 C 291.117188 -69.363281 352.707031 -41.90625 433.34375 -41.90625 C 555.882812 -41.90625 634.613281 -106.984375 669.53125 -237.140625 L 708.578125 -237.140625 L 708.578125 0 L 675.25 0 L 653.34375 -75.234375 C 586.675781 -18.722656 506.039062 9.53125 411.4375 9.53125 C 357.46875 9.53125 308.734375 0.957031 265.234375 -16.1875 C 221.742188 -33.332031 184.601562 -57.617188 153.8125 -89.046875 C 123.019531 -120.472656 99.207031 -158.726562 82.375 -203.8125 C 65.550781 -248.894531 57.140625 -299.054688 57.140625 -354.296875 C 57.140625 -412.066406 66.03125 -464.757812 83.8125 -512.375 C 101.59375 -560 126.515625 -600.953125 158.578125 -635.234375 C 190.640625 -669.523438 229.050781 -696.035156 273.8125 -714.765625 C 318.570312 -733.492188 367.9375 -742.859375 421.90625 -742.859375 C 460 -742.859375 495.867188 -737.460938 529.515625 -726.671875 C 563.171875 -715.878906 599.679688 -698.421875 639.046875 -674.296875 Z M 656.203125 -733.34375 "/></g></g></g></g></g></svg>